<?xml version="1.0" encoding="UTF-8"?>
<!-- Created with Inkscape (http://www.inkscape.org/) -->
<svg width="18.251mm" height="105.78mm" version="1.1" viewBox="0 0 18.251 105.78" xmlns="http://www.w3.org/2000/svg" xmlns:cc="http://creativecommons.org/ns#" xmlns:dc="http://purl.org/dc/elements/1.1/" xmlns:rdf="http://www.w3.org/1999/02/22-rdf-syntax-ns#">
 <metadata>
  <rdf:RDF>
   <cc:Work rdf:about="">
    <dc:format>image/svg+xml</dc:format>
    <dc:type rdf:resource="http://purl.org/dc/dcmitype/StillImage"/>
    <dc:title/>
   </cc:Work>
  </rdf:RDF>
 </metadata>
 <g transform="translate(-3.276 -1.2844)">
  <g transform="translate(1.0691 -4.6772)">
   <path d="m9.4872 111.32c-0.50932-0.2784-1.1939-0.89864-1.5214-1.3783-0.74645-1.0936-0.75121 1.4852 0.064973-35.218 0.74218-33.375 0.84308-30.92-1.3906-33.839-2.9603-3.8676-3.986-5.5195-4.2968-6.9201-0.26044-1.1735-0.17602-3.6399 0.49594-14.489 0.50158-8.0984 0.92057-13.184 1.1008-13.361 0.45515-0.44798 1.0479 0.56969 1.0569 1.8147 0.02022 2.7803 1.0244 20.529 1.1753 20.773 0.26884 0.435 0.88446 0.32376 1.0307-0.18623 0.073-0.25466 0.32747-4.9874 0.56548-10.517 0.23802-5.5298 0.51604-10.462 0.61782-10.96 0.22419-1.0972 0.74967-1.3472 1.0611-0.50487 0.12543 0.33925 0.43833 5.3198 0.69535 11.068 0.25702 5.7481 0.57604 10.659 0.70893 10.914 0.32982 0.63202 0.71584 0.58115 1.0038-0.13229 0.13215-0.32742 0.43438-5.2388 0.67163-10.914 0.23725-5.6753 0.545-10.596 0.6839-10.935 0.37517-0.91528 0.87775-0.55617 1.077 0.76958 0.09668 0.64319 0.37098 5.5152 0.60955 10.827 0.23858 5.3115 0.49231 9.9331 0.56386 10.27 0.08523 0.40157 0.2858 0.5829 0.5817 0.52592 0.65855-0.12682 0.77171-1.2349 1.2511-12.251 0.23431-5.3843 0.4866-9.9979 0.56064-10.253 0.14304-0.49195 0.76065-0.62617 1.0118-0.21988 0.08265 0.13373 0.51448 6.0886 0.95961 13.233 0.65494 10.512 0.75256 13.263 0.51171 14.424-0.31573 1.5209-1.2695 3.106-3.9492 6.5636-2.6431 3.4104-2.4928 0.1824-1.698 36.458 0.57335 26.169 0.63491 31.849 0.35257 32.53-0.81708 1.9726-3.6548 2.9468-5.5562 1.9075z" fill="#f14639" stroke-width=".26458"/>
  </g>
 </g>
</svg>
