<?xml version="1.0" encoding="UTF-8" standalone="no"?>
<!-- Created with Inkscape (http://www.inkscape.org/) -->

<svg
   xmlns:dc="http://purl.org/dc/elements/1.1/"
   xmlns:cc="http://creativecommons.org/ns#"
   xmlns:rdf="http://www.w3.org/1999/02/22-rdf-syntax-ns#"
   xmlns:svg="http://www.w3.org/2000/svg"
   xmlns="http://www.w3.org/2000/svg"
   xmlns:sodipodi="http://sodipodi.sourceforge.net/DTD/sodipodi-0.dtd"
   xmlns:inkscape="http://www.inkscape.org/namespaces/inkscape"
   width="18.251188mm"
   height="105.77815mm"
   viewBox="0 0 18.251188 105.77815"
   version="1.1"
   id="svg8"
   inkscape:version="0.92.2 (5c3e80d, 2017-08-06)"
   sodipodi:docname="fork-inkscape.svg">
  <defs
     id="defs2" />
  <sodipodi:namedview
     id="base"
     pagecolor="#ffffff"
     bordercolor="#666666"
     borderopacity="1.0"
     inkscape:pageopacity="0.0"
     inkscape:pageshadow="2"
     inkscape:zoom="1.979899"
     inkscape:cx="69.512114"
     inkscape:cy="265.05367"
     inkscape:document-units="mm"
     inkscape:current-layer="layer1"
     showgrid="false"
     fit-margin-top="0"
     fit-margin-left="0"
     fit-margin-right="0"
     fit-margin-bottom="0"
     inkscape:window-width="1600"
     inkscape:window-height="837"
     inkscape:window-x="1912"
     inkscape:window-y="161"
     inkscape:window-maximized="1" />
  <metadata
     id="metadata5">
    <rdf:RDF>
      <cc:Work
         rdf:about="">
        <dc:format>image/svg+xml</dc:format>
        <dc:type
           rdf:resource="http://purl.org/dc/dcmitype/StillImage" />
        <dc:title></dc:title>
      </cc:Work>
    </rdf:RDF>
  </metadata>
  <g
     inkscape:label="Layer 1"
     inkscape:groupmode="layer"
     id="layer1"
     transform="translate(-3.2759535,-1.284436)">
    <g
       id="g21"
       transform="translate(1.0690786,-4.6772168)">
      <path
         style="fill:#f14639;stroke-width:0.26458335"
         d="M 9.4872084,111.31804 C 8.9778855,111.03964 8.2932761,110.4194 7.9658542,109.93972 7.2194011,108.84616 7.2146436,111.42497 8.0308274,74.721814 8.7730112,41.346376 8.873905,43.801532 6.6402448,40.883302 3.6799137,37.015692 2.6542447,35.363848 2.3433981,33.963215 2.0829553,32.789692 2.1673743,30.323309 2.8393352,19.473925 3.3409119,11.375542 3.759908,6.2898738 3.940154,6.1124662 c 0.455152,-0.4479845 1.0478935,0.5696869 1.0569475,1.814662 0.02022,2.7802518 1.0243802,20.5290158 1.17527,20.7731608 0.2688442,0.434999 0.8844632,0.323763 1.0306542,-0.186229 0.073,-0.254662 0.3274672,-4.987396 0.5654829,-10.517188 C 8.0065246,12.46708 8.2845443,7.5351402 8.3863303,7.0370064 8.6105202,5.9398362 9.1359968,5.6898114 9.4474156,6.5321358 9.5728408,6.8713859 9.8857503,11.851923 10.14277,17.599997 c 0.257019,5.748073 0.576039,10.659401 0.708932,10.914063 0.329817,0.632022 0.715843,0.581146 1.003785,-0.132292 0.132146,-0.327422 0.434379,-5.23875 0.671628,-10.914063 0.237248,-5.675313 0.545003,-10.5959937 0.683899,-10.9348462 0.375174,-0.9152773 0.877751,-0.5561655 1.077023,0.7695762 0.09668,0.6431898 0.370977,5.515218 0.609554,10.826728 0.238576,5.311511 0.492312,9.933094 0.563858,10.270185 0.08523,0.401572 0.285796,0.582905 0.581698,0.525919 0.658548,-0.126825 0.771711,-1.234949 1.251119,-12.251312 0.234311,-5.384271 0.486601,-9.9979435 0.560645,-10.2526049 0.143035,-0.4919503 0.760652,-0.6261723 1.011755,-0.2198774 0.08265,0.1337289 0.514475,6.0885943 0.959613,13.2330343 0.65494,10.51176 0.752561,13.263399 0.511713,14.42356 -0.315731,1.520867 -1.269458,3.10597 -3.949176,6.563572 -2.643111,3.410365 -2.492775,0.182401 -1.697975,36.458421 0.573353,26.16875 0.634914,31.84883 0.352567,32.53048 -0.817077,1.9726 -3.654816,2.94683 -5.5561996,1.9075 z"
         id="path23"
         inkscape:connector-curvature="0" />
    </g>
  </g>
</svg>
