<?xml version="1.0" encoding="UTF-8" standalone="no"?>
<!-- Created with Inkscape (http://www.inkscape.org/) -->

<svg
   xmlns:dc="http://purl.org/dc/elements/1.1/"
   xmlns:cc="http://creativecommons.org/ns#"
   xmlns:rdf="http://www.w3.org/1999/02/22-rdf-syntax-ns#"
   xmlns:svg="http://www.w3.org/2000/svg"
   xmlns="http://www.w3.org/2000/svg"
   xmlns:sodipodi="http://sodipodi.sourceforge.net/DTD/sodipodi-0.dtd"
   xmlns:inkscape="http://www.inkscape.org/namespaces/inkscape"
   width="19.999928pt"
   height="28.525354pt"
   viewBox="0 0 7.05553 10.063111"
   version="1.1"
   id="svg8"
   inkscape:version="0.92.2 (5c3e80d, 2017-08-06)"
   sodipodi:docname="pin.svg">
  <defs
     id="defs2" />
  <sodipodi:namedview
     id="base"
     pagecolor="#ffffff"
     bordercolor="#666666"
     borderopacity="1.0"
     inkscape:pageopacity="0.0"
     inkscape:pageshadow="2"
     inkscape:zoom="22.627417"
     inkscape:cx="17.820591"
     inkscape:cy="18.568261"
     inkscape:document-units="mm"
     inkscape:current-layer="g826"
     showgrid="false"
     fit-margin-top="0"
     fit-margin-left="0"
     fit-margin-right="0"
     fit-margin-bottom="0"
     inkscape:window-width="2736"
     inkscape:window-height="1699"
     inkscape:window-x="-13"
     inkscape:window-y="-13"
     inkscape:window-maximized="1"
     units="pt" />
  <metadata
     id="metadata5">
    <rdf:RDF>
      <cc:Work
         rdf:about="">
        <dc:format>image/svg+xml</dc:format>
        <dc:type
           rdf:resource="http://purl.org/dc/dcmitype/StillImage" />
        <dc:title></dc:title>
      </cc:Work>
    </rdf:RDF>
  </metadata>
  <g
     inkscape:label="Layer 1"
     inkscape:groupmode="layer"
     id="layer1"
     transform="translate(-53.484308,-72.738691)">
    <g
       id="g826"
       transform="translate(-151.27455,1.6036165)">
      <path
         style="fill:#b2b8c4;fill-opacity:0.89970499;fill-rule:nonzero;stroke:none;stroke-width:0.03700247;stroke-linecap:round;stroke-miterlimit:4;stroke-dasharray:none;stroke-opacity:1"
         d="m 208.22036,81.146787 c -0.10457,-0.108601 -0.48121,-0.562507 -0.7349,-0.88567 -1.26881,-1.616291 -2.16194,-3.157963 -2.52481,-4.358186 -0.12525,-0.414278 -0.17981,-0.702685 -0.19513,-1.03148 -0.017,-0.365413 -0.002,-0.616694 0.0512,-0.883775 0.11153,-0.554834 0.3592,-1.088048 0.70938,-1.527276 0.10067,-0.126276 0.39087,-0.420386 0.51889,-0.525893 0.47595,-0.392256 1.10811,-0.67482 1.70219,-0.760845 0.95103,-0.137714 1.88987,0.09594 2.63931,0.656851 0.74943,0.560908 1.23572,1.359883 1.38446,2.274646 0.11584,0.712472 0.002,1.451853 -0.36568,2.369237 -0.50319,1.256436 -1.50469,2.823297 -2.77855,4.347033 -0.22832,0.273106 -0.32256,0.376757 -0.34255,0.376757 -0.008,0 -0.0366,-0.02313 -0.0638,-0.0514 z m 0.26226,-5.260051 c 0.19345,-0.03322 0.39223,-0.115004 0.52283,-0.215115 0.0891,-0.06826 0.22817,-0.203973 0.28073,-0.273867 0.0763,-0.101471 0.16484,-0.292135 0.20019,-0.431054 0.0288,-0.113291 0.0368,-0.415727 0.014,-0.53626 -0.0183,-0.09718 -0.0623,-0.228448 -0.10576,-0.315491 -0.11518,-0.230698 -0.33102,-0.44594 -0.56396,-0.562393 -0.0828,-0.04138 -0.24541,-0.09496 -0.32802,-0.108056 -0.0974,-0.01544 -0.36978,-0.01322 -0.45728,0.0038 -0.0898,0.01738 -0.22645,0.0652 -0.31779,0.111171 -0.26983,0.135816 -0.50226,0.393014 -0.6019,0.666026 -0.0619,0.16962 -0.0718,0.227043 -0.0726,0.41821 -8e-4,0.257311 0.0277,0.388407 0.12697,0.582519 0.17742,0.346862 0.50688,0.591626 0.89011,0.6613 0.0967,0.01758 0.30801,0.01722 0.41235,-7.2e-4 z"
         id="path844"
         inkscape:connector-curvature="0"
         inkscape:export-xdpi="96"
         inkscape:export-ydpi="96" />
    </g>
  </g>
</svg>
